<?xml version="1.0" encoding="UTF-8"?>
<svg id="Vrstva_1" data-name="Vrstva 1" xmlns="http://www.w3.org/2000/svg" viewBox="0 0 180.48 78.39">
  <defs>
    <style>
      .cls-1 {
        fill: #151615;
      }
    </style>
  </defs>
  <g>
    <path class="cls-1" d="M15.87,78.39v-9.75h2.73c.8,0,1.52.18,2.15.54.63.36,1.13.88,1.48,1.56.36.68.53,1.45.53,2.32v.9c0,.87-.18,1.64-.53,2.32-.35.67-.85,1.19-1.49,1.56-.64.37-1.38.55-2.21.55h-2.67ZM16.7,69.34v8.36h1.85c1.03,0,1.85-.34,2.47-1.02.62-.68.93-1.6.93-2.76v-.86c0-1.12-.31-2.02-.92-2.69-.61-.67-1.42-1.01-2.42-1.02h-1.92Z"/>
    <path class="cls-1" d="M46.25,77.69h4.81v.7h-5.64v-9.75h.83v9.05Z"/>
    <path class="cls-1" d="M78.6,75.65h-4.43l-1,2.74h-.86l3.69-9.75h.78l3.69,9.75h-.86l-1.01-2.74ZM74.43,74.95h3.91l-1.96-5.31-1.96,5.31Z"/>
    <path class="cls-1" d="M102.84,77.69h6.02v.7h-7.02v-.62l5.79-8.43h-5.61v-.7h6.63v.58l-5.8,8.47ZM105.33,67.38l1.15-1.3h.71v.08l-1.58,1.75h-.58l-1.57-1.75v-.07h.72l1.15,1.3Z"/>
    <path class="cls-1" d="M131.24,78.39v-9.75h2.88c1.04,0,1.84.21,2.38.65.54.43.81,1.07.81,1.91,0,.5-.14.94-.41,1.32s-.65.64-1.13.8c.57.12,1.02.4,1.37.84s.52.93.52,1.5c0,.86-.28,1.53-.83,2.02-.56.48-1.33.73-2.32.73h-3.26ZM132.06,73.01h2.25c.69-.01,1.22-.17,1.6-.49.38-.31.57-.76.57-1.36,0-.63-.2-1.09-.59-1.39-.39-.3-.98-.45-1.77-.45h-2.06v3.67ZM132.06,73.71v3.98h2.47c.71,0,1.26-.18,1.68-.54.41-.36.62-.86.62-1.49,0-.6-.2-1.08-.59-1.43-.39-.35-.94-.53-1.64-.53h-2.54Z"/>
    <path class="cls-1" d="M165.47,75.65h-4.43l-1,2.74h-.86l3.69-9.75h.78l3.69,9.75h-.86l-1.01-2.74ZM161.3,74.95h3.91l-1.96-5.31-1.96,5.31Z"/>
  </g>
  <g>
    <g>
      <rect class="cls-1" x="142.99" y=".05" width="14.17" height="46.95"/>
      <rect class="cls-1" x="166.31" y=".04" width="14.17" height="55.28"/>
      <rect class="cls-1" x="159.35" y="20.13" width="7.09" height="7.09"/>
    </g>
    <polygon class="cls-1" points="96.37 .03 134 .01 134 13.94 118.42 19.66 118.42 12.36 112.09 12.36 112.05 34.41 118.42 34.41 118.42 26.46 134 26.46 133.96 47.04 96.35 47.05 96.37 .03"/>
    <path class="cls-1" d="M60.07.53l-11.71,17.71v29.24h14.67v-19.81h6.48v28.19h14.28V.53h-23.71ZM69.52,20.54h-6.48v.08l-.02-.08h.02v-4l4.33-6,2.15.02v9.98Z"/>
    <polygon class="cls-1" points=".02 0 37.06 0 37.16 14.08 22.07 19.63 22.07 12.33 15.74 12.33 15.7 34.38 22.07 34.38 22.07 26.43 37.65 26.43 37.64 47.04 0 47.02 .02 0"/>
  </g>
</svg>